#!OML:ASF \\sashay\E\basketball\basketball\Project 1\Capture day 1\Session 1\Subject.ASF
:FULLY-SPECIFIED
:DEGREES
379
root -33.4225 13.4481 1.2274 -168.137 50.2263 -172.774
lowerback 31.3231 -4.38267 1.18915
upperback 13.1668 -2.72849 2.86033
thorax -2.0923 -0.480294 3.32179
lowerneck 9.10058 -14.0689 -10.7956
upperneck -30.1034 -12.2269 37.4885
head -6.67201 -8.40079 16.7157
rclavicle -7.7526e-015 4.53229e-014
rhumerus -11.832 43.0507 -86.1162
rradius 75.379
rwrist -8.74542
rhand -43.9157 424.086
rfingers 7.12502
rthumb -16.7401 34.7881
lclavicle -7.7526e-015 4.53229e-014
lhumerus -14.3999 -18.6009 105.56
lradius 73.4736
lwrist 32.9965
lhand -28.5449 33.8537
lfingers 7.12502
lthumb -1.91217 63.8249
rfemur -33.7613 -9.93751 -1.32784
rtibia 55.8038
rfoot -12.6848 -13.3818
rtoes -52.7971
lfemur -48.0056 -1.15973 1.07771
ltibia 86.5063
lfoot -18.7051 -10.1476
ltoes -27.2535
380
root -33.399 13.4357 1.25118 -167.695 50.1545 -172.411
lowerback 31.5333 -4.46471 1.42692
upperback 13.2033 -2.71486 3.07725
thorax -2.14248 -0.461856 3.43161
lowerneck 9.0666 -14.2084 -10.7214
upperneck -31.1742 -12.0265 37.9418
head -7.01674 -8.35145 17.1203
rclavicle 6.55989e-014 -5.6753e-014
rhumerus -11.7801 42.7457 -86.4822
rradius 75.4948
rwrist -8.64185
rhand -43.5147 423.952
rfingers 7.12502
rthumb -16.354 34.6217
lclavicle 6.55989e-014 -5.6753e-014
lhumerus -14.6052 -17.9149 105.784
lradius 73.8202
lwrist 32.6544
lhand -29.1312 34.0251
lfingers 7.12502
lthumb -2.47839 63.9905
rfemur -34.4101 -10.2829 -0.895532
rtibia 56.6275
rfoot -14.085 -12.0522
rtoes -51.5892
lfemur -48.0473 -1.58608 1.80286
ltibia 86.3407
lfoot -19.4021 -10.1974
ltoes -29.9086
381
root -33.3724 13.4374 1.27736 -167.383 50.6667 -172.303
lowerback 31.687 -4.20912 1.11909
upperback 13.2235 -2.46305 3.22081
thorax -2.17469 -0.356193 3.69394
lowerneck 9.20387 -14.4267 -10.5879
upperneck -32.6264 -11.8611 38.336
head -7.53356 -8.33133 17.5979
rclavicle 4.81059e-014 8.15017e-015
rhumerus -11.8835 42.9128 -87.0597
rradius 75.6791
rwrist -8.88021
rhand -43.2551 423.978
rfingers 7.12502
rthumb -16.104 34.6271
lclavicle 4.81059e-014 8.15017e-015
lhumerus -14.9383 -16.8728 105.873
lradius 74.4677
lwrist 32.1595
lhand -29.4734 33.9866
lfingers 7.12502
lthumb -2.80889 63.9478
rfemur -35.4109 -10.2367 -0.637143
rtibia 57.3781
rfoot -13.9487 -11.4304
rtoes -51.7193
lfemur -47.7754 -1.27068 2.23424
ltibia 85.9197
lfoot -19.674 -10.9366
ltoes -30.0841
382
root -33.3623 13.4469 1.28641 -167.496 50.6978 -172.722
lowerback 31.8953 -4.21972 1.17895
upperback 13.1025 -2.46461 3.17925
thorax -2.40973 -0.356027 3.62341
lowerneck 9.2122 -14.6715 -10.4663
upperneck -33.6202 -11.8976 38.5506
head -7.83892 -8.38069 17.866
rclavicle 1.6201e-014 -1.70955e-014
rhumerus -12.3106 42.8089 -88.0672
rradius 75.9144
rwrist -8.49477
rhand -42.9883 423.94
rfingers 7.12502
rthumb -15.8471 34.5689
lclavicle 1.6201e-014 -1.70955e-014
lhumerus -15.5053 -15.7852 105.855
lradius 75.2371
lwrist 31.4807
lhand -29.2766 33.6095
lfingers 7.12502
lthumb -2.61881 63.5732
rfemur -36.0336 -10.8225 -0.743008
rtibia 58.0057
rfoot -13.0634 -11.5089
rtoes -52.8092
lfemur -47.7678 -1.39867 2.29792
ltibia 85.3025
lfoot -19.6364 -12.0905
ltoes -28.908
383
root -33.3504 13.4696 1.30079 -167.596 51.2657 -173.036
lowerback 32.2711 -3.8123 0.88627
upperback 12.9482 -2.04474 3.17505
thorax -2.76066 -0.167033 3.66512
lowerneck 9.29228 -14.8851 -10.369
upperneck -34.5361 -11.9887 38.4965
head -8.15205 -8.43036 18.0024
rclavicle 2.42517e-014 -4.17448e-014
rhumerus -12.9921 42.602 -89.2492
rradius 76.0696
rwrist -8.17777
rhand -42.5874 424.292
rfingers 7.12502
rthumb -15.461 34.8905
lclavicle 2.42517e-014 -4.17448e-014
lhumerus -16.1263 -14.6324 105.833
lradius 76.0187
lwrist 30.5781
lhand -28.0276 33.07
lfingers 7.12502
lthumb -1.41254 63.0451
rfemur -36.8129 -10.7415 -0.816157
rtibia 58.5223
rfoot -12.6888 -11.1507
rtoes -52.7579
lfemur -47.1712 -0.95551 2.28917
ltibia 84.4287
lfoot -20.0409 -12.8901
ltoes -30.0075
384
root -33.341 13.4871 1.31589 -167.696 51.9435 -173.44
lowerback 32.5922 -3.29613 0.555842
upperback 12.7849 -1.51788 3.11254
thorax -3.10868 0.0721277 3.62117
lowerneck 9.28513 -15.157 -10.2677
upperneck -35.5422 -12.1437 38.4375
head -8.46225 -8.49747 18.1331
rclavicle -3.41164e-014 -6.25551e-014
rhumerus -13.5509 42.4586 -90.4334
rradius 76.1106
rwrist -7.71826
rhand -42.2509 424.512
rfingers 7.12502
rthumb -15.1369 35.0851
lclavicle -3.41164e-014 -6.25551e-014
lhumerus -16.8136 -13.6042 105.525
lradius 76.8801
lwrist 29.606
lhand -26.6269 32.478
lfingers 7.12502
lthumb -0.0597288 62.4577
rfemur -37.7592 -10.5625 -0.937854
rtibia 58.9395
rfoot -11.5192 -11.2941
rtoes -53.0196
lfemur -46.5655 -0.168244 2.20306
ltibia 83.4778
lfoot -20.4138 -13.723
ltoes -31.3644
385
root -33.336 13.5146 1.3259 -167.663 52.4924 -173.833
lowerback 32.7705 -2.86039 0.473651
upperback 12.5664 -1.0497 2.94864
thorax -3.46841 0.287932 3.33121
lowerneck 9.14009 -15.4423 -10.307
upperneck -36.2969 -12.3865 38.4818
head -8.59769 -8.59131 18.2441
rclavicle 3.75206e-014 -6.56238e-014
rhumerus -14.0312 42.5324 -91.787
rradius 76.0041
rwrist -7.3016
rhand -42.2661 424.391
rfingers 7.12502
rthumb -15.1515 34.9661
lclavicle 3.75206e-014 -6.56238e-014
lhumerus -17.5519 -12.8859 104.97
lradius 77.7848
lwrist 29.0851
lhand -26.7148 32.1917
lfingers 7.12502
lthumb -0.144623 62.1714
rfemur -38.6866 -10.6152 -0.991552
rtibia 59.2108
rfoot -10.8556 -11.1746
rtoes -53.0257
lfemur -46.1546 0.731655 2.11979
ltibia 82.4676
lfoot -19.9151 -15.1876
ltoes -29.6534
386
root -33.3332 13.549 1.33475 -167.559 53.1265 -174.156
lowerback 33.3907 -2.3299 0.392137
upperback 11.9199 -0.47867 2.90194
thorax -3.98389 0.535208 2.91761
lowerneck 9.00184 -15.6591 -10.5042
upperneck -36.8241 -12.6752 38.3484
head -8.64344 -8.67272 18.2352
rclavicle -5.35725e-014 -1.78409e-014
rhumerus -14.4555 42.7488 -93.0886
rradius 75.7939
rwrist -6.43526
rhand -42.9475 425.342
rfingers 7.12502
rthumb -15.8078 35.9669
lclavicle -5.35725e-014 -1.78409e-014
lhumerus -18.2456 -12.2281 104.438
lradius 78.6057
lwrist 28.7598
lhand -27.0938 32.1779
lfingers 7.12502
lthumb -0.510712 62.1571
rfemur -39.5879 -10.6287 -0.974695
rtibia 59.4223
rfoot -11.3 -10.3842
rtoes -51.9988
lfemur -45.6915 1.93008 1.99924
ltibia 81.4825
lfoot -19.5878 -16.5371
ltoes -28.6469
387
root -33.3235 13.5845 1.34144 -167.608 53.3002 -174.503
lowerback 33.7189 -1.95291 0.443511
upperback 11.6178 -0.0271353 2.81119
thorax -4.45052 0.744296 2.64595
lowerneck 8.75348 -15.9367 -10.6399
upperneck -37.4751 -13.0402 38.0757
head -8.71245 -8.76953 18.1389
rclavicle 8.21975e-014 3.76697e-014
rhumerus -14.9212 43.1238 -94.3503
rradius 75.7093
rwrist -6.00728
rhand -43.0307 425.661
rfingers 7.12502
rthumb -15.8879 36.2923
lclavicle 8.21975e-014 3.76697e-014
lhumerus -18.8608 -11.5459 103.845
lradius 79.399
lwrist 28.3848
lhand -27.6896 32.541
lfingers 7.12502
lthumb -1.08615 62.5179
rfemur -39.9831 -10.9763 -0.887117
rtibia 59.5614
rfoot -11.4046 -9.95072
rtoes -51.1091
lfemur -45.2338 2.80521 1.90194
ltibia 80.4293
lfoot -19.6277 -17.631
ltoes -28.8491
388
root -33.3088 13.6134 1.35766 -166.722 54.255 -174.122
lowerback 33.5826 -1.1656 0.320576
upperback 11.357 0.832781 2.71351
thorax -4.7174 1.1293 2.32154
lowerneck 8.43897 -16.2937 -10.6642
upperneck -38.3367 -13.4186 37.8696
head -8.84728 -8.87484 18.089
rclavicle -1.14102e-013 7.17613e-014
rhumerus -15.3102 43.6591 -95.6623
rradius 75.6884
rwrist -5.87551
rhand -42.4862 425.779
rfingers 7.12502
rthumb -15.3635 36.3695
lclavicle -1.14102e-013 7.17613e-014
lhumerus -19.3584 -10.7828 103.009
lradius 80.2701
lwrist 27.9474
lhand -28.8249 33.2087
lfingers 7.12502
lthumb -2.18262 63.1773
rfemur -41.1517 -10.6398 -0.323252
rtibia 59.6744
rfoot -10.9565 -9.74224
rtoes -50.6357
lfemur -44.8184 5.09177 2.0717
ltibia 79.4577
lfoot -19.5365 -18.784
ltoes -30.1936
389
root -33.289 13.6628 1.36816 -166.925 54.9396 -174.488
lowerback 34.0026 -0.490855 -0.0105157
upperback 11.1274 1.5249 2.46648
thorax -5.14137 1.44846 1.9966
lowerneck 7.64724 -16.758 -10.6843
upperneck -38.7383 -14.0639 37.5612
head -8.64846 -9.08435 17.7384
rclavicle 3.598e-014 5.96354e-016
rhumerus -15.5006 44.243 -96.9295
rradius 75.6475
rwrist -6.09174
rhand -41.827 426.089
rfingers 7.12502
rthumb -14.7285 36.6326
lclavicle 3.598e-014 5.96354e-016
lhumerus -19.8747 -10.0359 101.939
lradius 81.2397
lwrist 27.4727
lhand -28.6344 33.0186
lfingers 7.12502
lthumb -1.99863 62.9889
rfemur -41.4311 -10.4627 -0.288623
rtibia 59.6301
rfoot -10.4044 -9.93079
rtoes -50.5373
lfemur -43.9564 6.87013 1.73907
ltibia 78.4494
lfoot -19.422 -19.7105
ltoes -30.8853
